HIERARCHY
ROOT Pelvis
{
	OFFSET 0.000000 0.000000 0.000000
	CHANNELS 6 Xposition Yposition Zposition Xrotation Yrotation Zrotation
	JOINT LeftUpLeg_virtual
	{
		OFFSET 0.000000 0.000000 0.000000
		CHANNELS 3 Xrotation Yrotation Zrotation
		JOINT LeftUpLeg
		{
			OFFSET 18.735201 -5.666702 -4.541200
			CHANNELS 3 Xrotation Yrotation Zrotation
			JOINT LeftLeg
			{
				OFFSET -0.021200 -31.938179 0.493100
				CHANNELS 3 Xrotation Yrotation Zrotation
				JOINT LeftFoot
				{
					OFFSET 0.021200 -31.938179 -4.336299
					CHANNELS 3 Xrotation Yrotation Zrotation
					JOINT LeftToeBase
					{
						OFFSET 0.943001 -26.722000 15.023500
						CHANNELS 3 Xrotation Yrotation Zrotation
						End Site
						{
							OFFSET 0 0 0
						}
					}
				}
			}
		}
	}
	JOINT RightUpLeg_virtual
	{
		OFFSET 0.000000 0.000000 0.000000
		CHANNELS 3 Xrotation Yrotation Zrotation
		JOINT RightUpLeg
		{
			OFFSET -18.735201 -5.666702 -4.541200
			CHANNELS 3 Xrotation Yrotation Zrotation
			JOINT RightLeg
			{
				OFFSET 0.018946 -31.938133 0.493100
				CHANNELS 3 Xrotation Yrotation Zrotation
				JOINT RightFoot
				{
					OFFSET -0.018946 -31.938126 -4.336299
					CHANNELS 3 Xrotation Yrotation Zrotation
					JOINT RightToeBase
					{
						OFFSET -0.943001 -26.722004 15.023500
						CHANNELS 3 Xrotation Yrotation Zrotation
						End Site
						{
							OFFSET 0 0 0
						}
					}
				}
			}
		}
	}
	JOINT Hips_virtual
	{
		OFFSET 0.000000 0.000000 0.000000
		CHANNELS 3 Xrotation Yrotation Zrotation
		JOINT Hips
		{
			OFFSET -0.000000 -0.000000 -0.000000
			CHANNELS 3 Xrotation Yrotation Zrotation
			JOINT Spine
			{
				OFFSET 0.000000 10.199997 -0.299500
				CHANNELS 3 Xrotation Yrotation Zrotation
				JOINT Spine1
				{
					OFFSET 0.000000 11.900002 -1.516600
					CHANNELS 3 Xrotation Yrotation Zrotation
					JOINT Spine2
					{
						OFFSET 0.000000 13.600006 -2.842500
						CHANNELS 3 Xrotation Yrotation Zrotation
						JOINT Neck_virtual
						{
							OFFSET 0.000000 0.000000 0.000000
							CHANNELS 3 Xrotation Yrotation Zrotation
							JOINT Neck
							{
								OFFSET 0.000000 9.624100 -2.890100
								CHANNELS 3 Xrotation Yrotation Zrotation
								JOINT Head
								{
									OFFSET 0.000000 14.068802 -1.351900
									CHANNELS 3 Xrotation Yrotation Zrotation
									End Site
									{
										OFFSET 0 0 0
									}
								}
							}
						}
						JOINT LeftShoulder_virtual
						{
							OFFSET 0.000000 0.000000 0.000000
							CHANNELS 3 Xrotation Yrotation Zrotation
							JOINT LeftShoulder
							{
								OFFSET 15.263000 10.923401 -0.547700
								CHANNELS 3 Xrotation Yrotation Zrotation
								JOINT LeftArm
								{
									OFFSET 25.438599 -2.830597 -13.032500
									CHANNELS 3 Xrotation Yrotation Zrotation
									JOINT LeftForeArm
									{
										OFFSET 29.960503 0.000000 0.000000
										CHANNELS 3 Xrotation Yrotation Zrotation
										JOINT LeftHand
										{
											OFFSET 27.849251 0.000000 0.000000
											CHANNELS 3 Xrotation Yrotation Zrotation
											End Site
											{
												OFFSET 0 0 0
											}
										}
									}
								}
							}
						}
						JOINT RightShoulder_virtual
						{
							OFFSET 0.000000 0.000000 0.000000
							CHANNELS 3 Xrotation Yrotation Zrotation
							JOINT RightShoulder
							{
								OFFSET -15.263000 10.923401 -0.547700
								CHANNELS 3 Xrotation Yrotation Zrotation
								JOINT RightArm
								{
									OFFSET -25.438599 -2.830597 -13.032500
									CHANNELS 3 Xrotation Yrotation Zrotation
									JOINT RightForeArm
									{
										OFFSET -29.960503 0.000000 0.000000
										CHANNELS 3 Xrotation Yrotation Zrotation
										JOINT RightHand
										{
											OFFSET -27.849251 0.000000 0.000000
											CHANNELS 3 Xrotation Yrotation Zrotation
											End Site
											{
												OFFSET 0 0 0
											}
										}
									}
								}
							}
						}
					}
				}
			}
		}
	}
}
MOTION
Frames: 5
Frame Time: 0.03333333
-2.995403 74.431656 1.595999 0.000000 0.000000 0.000000 0.700117 -52.095007 12.278032 -51.226535 -8.325046 25.724036 49.253580 -3.398304 -8.625823 -4.502618 1.014349 -20.281021 0.000000 0.000000 0.000000 5.583031 -53.847890 -4.522409 -29.461273 -17.307493 -28.248351 48.508348 10.166080 1.411832 -9.488926 4.817854 21.536983 0.000000 0.000000 0.000000 -2.632991 -34.214467 0.360136 -4.705004 -38.180436 -2.729288 8.582397 -0.294640 -2.690819 4.034854 0.193010 -2.363846 0.000000 0.000000 0.000000 4.778926 3.702728 -0.622340 0.613604 2.912435 0.012814 0.000000 0.000000 0.000000 4.556631 -0.280998 -2.002449 1.464088 -6.721954 -9.356319 -36.341049 -9.721982 -30.059123 -7.533132 -46.287724 1.053804 0.000000 0.000000 0.000000 5.223145 1.160534 -1.338095 3.889677 11.463487 -0.930472 -9.889212 49.966529 15.946991 143.416952 78.193358 -148.171501 0.000000 0.000000 0.000000 
-1.292064 74.347336 1.519997 0.000000 0.000000 0.000000 1.601841 -51.756937 14.144158 -50.754845 -8.868698 26.972994 49.754271 -3.720554 -10.027907 -3.779320 1.386480 -22.745749 0.000000 0.000000 0.000000 6.624401 -53.188182 -4.401878 -28.368569 -17.310872 -28.297604 48.897816 11.229133 1.666179 -9.295899 5.687221 22.693582 0.000000 0.000000 0.000000 -4.220256 -36.905308 -1.049421 -5.168504 -37.744339 -4.843002 8.181814 -0.847315 -3.353399 3.918602 0.198726 -2.483353 0.000000 0.000000 0.000000 4.980581 3.459158 -1.078465 0.623470 3.115106 -0.107548 0.000000 0.000000 0.000000 4.218628 -0.670000 -2.438344 1.726083 -6.597641 -10.337474 -38.094588 -10.042891 -27.191531 -7.333306 -45.317947 2.046055 0.000000 0.000000 0.000000 5.092274 1.013861 -1.223967 4.076512 10.819255 -0.325533 -2.266134 51.088425 7.065371 147.843515 75.762617 -152.708509 0.000000 0.000000 0.000000 
-1.950085 75.614670 2.162733 0.000000 0.000000 0.000000 2.820995 -51.696602 16.315112 -50.711371 -9.364355 28.490106 49.123414 -3.793743 -10.646684 -4.149313 1.671035 -23.807461 0.000000 0.000000 0.000000 6.298350 -53.130491 -5.087571 -28.386032 -17.124502 -28.825150 49.204785 12.027065 1.692590 -9.539466 6.274156 23.270390 0.000000 0.000000 0.000000 -1.634159 -36.422916 1.563044 -9.200588 -33.740704 -4.214494 9.341793 -1.020027 -3.486162 3.773474 0.123840 -2.108693 0.000000 0.000000 0.000000 5.541646 3.466454 -0.942633 0.578194 3.333937 -0.199633 0.000000 0.000000 0.000000 4.480348 -0.519534 -2.567986 1.563242 -7.372858 -11.670728 -35.719611 -10.320149 -26.126157 -6.205391 -42.475188 2.504564 0.000000 0.000000 0.000000 4.598152 0.960729 -0.799337 3.693373 9.993282 0.560440 1.907841 51.303023 4.151970 148.608251 74.685769 -153.991956 0.000000 0.000000 0.000000 
-2.022783 75.464622 1.176683 0.000000 0.000000 0.000000 1.323577 -53.027874 15.552049 -51.890959 -9.977294 28.009175 49.646770 -4.206246 -10.920257 -3.485969 1.444541 -24.560527 0.000000 0.000000 0.000000 6.733046 -55.275550 -5.911233 -27.391480 -17.657866 -29.774939 49.617100 12.315790 1.716396 -9.088067 6.648852 23.578339 0.000000 0.000000 0.000000 -2.510826 -37.937162 0.649681 -2.933134 -37.551267 -1.580158 8.038526 -1.405858 -2.762242 4.094954 0.219149 -2.232468 0.000000 0.000000 0.000000 5.002191 3.384170 -0.945920 0.503031 3.399674 -0.227931 0.000000 0.000000 0.000000 4.546908 -0.807914 -2.884567 1.160948 -6.507304 -11.817370 -37.659327 -10.287079 -24.350437 -6.563369 -42.827007 2.625644 0.000000 0.000000 0.000000 4.317126 1.051840 -0.582681 2.964606 9.226766 2.145023 -0.198873 51.709815 6.648311 155.539704 72.368566 -160.277506 0.000000 0.000000 0.000000 
-2.293291 76.375549 2.086237 0.000000 0.000000 0.000000 2.141352 -54.421165 17.221892 -51.800035 -10.918648 28.841809 49.336949 -4.234901 -11.206693 -3.600932 1.455064 -25.246580 0.000000 0.000000 0.000000 5.739219 -56.921506 -5.375107 -29.367293 -17.980570 -29.369414 49.740931 12.345171 1.271127 -8.761123 7.068522 22.973872 0.000000 0.000000 0.000000 -1.976074 -35.447527 0.864841 -8.786062 -34.803786 -4.668280 9.440798 -1.495867 -2.984581 4.207420 -0.102413 -1.885853 0.000000 0.000000 0.000000 5.424822 3.106647 -0.906186 0.458185 3.536998 -0.143191 0.000000 0.000000 0.000000 4.590097 -1.202169 -3.049854 0.830191 -6.384012 -12.403148 -35.900393 -12.272138 -25.494569 -5.813932 -43.391867 1.920036 0.000000 0.000000 0.000000 4.109611 0.946418 -0.031041 3.159385 10.069667 3.048890 1.794198 51.385788 6.788250 161.007216 70.186710 -164.931884 0.000000 0.000000 0.000000 
